<svg xmlns="http://www.w3.org/2000/svg" viewBox="0 0 512 512" xmlns:c2pa="http://c2pa.org/manifest"><metadata><c2pa:manifest>AAAWgmp1bWIAAAAeanVtZGMycGEAEQAQgAAAqgA4m3EDYzJwYQAAABZcanVtYgAAAEdqdW1kYzJtYQARABCAAACqADibcQN1cm46YzJwYTo3MzQyNWU2My04OGNhLTQyMDktOTNiMy1mZTU2ODY2NTkyOWMAAAADl2p1bWIAAAApanVtZGMyYXMAEQAQgAAAqgA4m3EDYzJwYS5hc3NlcnRpb25zAAAAALxqdW1iAAAARGp1bWRjYm9yABEAEIAAAKoAOJtxE2MycGEuaW5ncmVkaWVudC52MwAAAAAYYzJzaO864mrXjksCJfd9PTWL6i0AAABwY2JvcqNpZGM6Zm9ybWF0bWltYWdlL3N2Zyt4bWxqaW5zdGFuY2VJRHgseG1wOmlpZDo3ZjJhNjRiZi05YTdmLTQ2NjktYWZjNS1lYzNkZTU2ZTY1OWZscmVsYXRpb25zaGlwaHBhcmVudE9mAAAB4mp1bWIAAABBanVtZGNib3IAEQAQgAAAqgA4m3ETYzJwYS5hY3Rpb25zLnYyAAAAABhjMnNoSzhsAIW/QDxdaeNttIasxQAAAZljYm9yomdhY3Rpb25zgqJmYWN0aW9ua2MycGEub3BlbmVkanBhcmFtZXRlcnOha2luZ3JlZGllbnRzgaJjdXJseC1zZWxmI2p1bWJmPWMycGEuYXNzZXJ0aW9ucy9jMnBhLmluZ3JlZGllbnQudjNkaGFzaFggS2fXenVxDUdThmtsTICBwHc9KKf/ttyYJwtf4xyxccekZmFjdGlvbngdY29tLmFudGhyb3BpYy5jbGF1ZGUucHJvdmlkZWRqcGFyYW1ldGVyc6F4H2NvbS5hbnRocm9waWMub3JpZ2luLWNvbmZpZGVuY2VndW5rbm93bmtkZXNjcmlwdGlvbnhmQ2xhdWRlIHByb3ZpZGVkIHRoaXMgZmlsZSBhdCB0aGUgcmVxdWVzdCBvZiBhIHVzZXIgYW5kIG1heSBoYXZlIGNyZWF0ZWQgb3IgbW9kaWZpZWQgdGhlIGZpbGUgY29udGVudHMubXNvZnR3YXJlQWdlbnShZG5hbWVmQ2xhdWRlcmFsbEFjdGlvbnNJbmNsdWRlZPUAAADIanVtYgAAAEBqdW1kY2JvcgARABCAAACqADibcRNjMnBhLmhhc2guZGF0YQAAAAAYYzJzaNCwFGiPZVfjjqxaSToj55IAAACAY2JvcqVjYWxnZnNoYTI1NmNwYWRNAAAAAAAAAAAAAAAAAGRoYXNoWCDFYJr4+1WtHM0c569QWWP5wczDSJZiQEHkMHziIpE2wGRuYW1lbmp1bWJmIG1hbmlmZXN0amV4Y2x1c2lvbnOBomVzdGFydBh9Zmxlbmd0aBkeBAAAAj5qdW1iAAAAJ2p1bWRjMmNsABEAEIAAAKoAOJtxA2MycGEuY2xhaW0udjIAAAACD2Nib3KlY2FsZ2ZzaGEyNTZpc2lnbmF0dXJleE1zZWxmI2p1bWJmPS9jMnBhL3VybjpjMnBhOjczNDI1ZTYzLTg4Y2EtNDIwOS05M2IzLWZlNTY4NjY1OTI5Yy9jMnBhLnNpZ25hdHVyZWppbnN0YW5jZUlEeCx4bXA6aWlkOmRlZDNiMjlmLTE1NWItNDI0Yy1hMGFiLTNhMmE1Y2RkODU3ZXJjcmVhdGVkX2Fzc2VydGlvbnODomN1cmx4LXNlbGYjanVtYmY9YzJwYS5hc3NlcnRpb25zL2MycGEuaW5ncmVkaWVudC52M2RoYXNoWCBLZ9d6dXENR1OGa2xMgIHAdz0op/+23JgnC1/jHLFxx6JjdXJseCpzZWxmI2p1bWJmPWMycGEuYXNzZXJ0aW9ucy9jMnBhLmFjdGlvbnMudjJkaGFzaFggkGieGwK81yaqL+oy2gFB/03GAP20mRLZ8qufFEiR1DOiY3VybHgpc2VsZiNqdW1iZj1jMnBhLmFzc2VydGlvbnMvYzJwYS5oYXNoLmRhdGFkaGFzaFgggwgpDqC07fw7aF1QLQFLRcpLQUjrSk81MoP2NX0Tx9N0Y2xhaW1fZ2VuZXJhdG9yX2luZm+jZG5hbWVvQW50aHJvcGljIEZpbGVzZ3ZlcnNpb25lMS4wLjBrc3BlY1ZlcnNpb25lMi40LjAAABA4anVtYgAAAChqdW1kYzJjcwARABCAAACqADibcQNjMnBhLnNpZ25hdHVyZQAAABAIY2JvctKEWQISogEmGCFZAgowggIGMIIBjaADAgECAhRA5aAK7sI50L64g/oGQgU9Z1UTADAKBggqhkjOPQQDAzBJMRcwFQYDVQQKEw5BbnRocm9waWMsIFBCQzEuMCwGA1UEAxMlQW50aHJvcGljIENvbnRlbnQgQ3JlZGVudGlhbHMgUm9vdCBDQTAeFw0yNjA4MDcxODQzNTZaFw0yODA4MDYxOTQzNTZaMEQxFzAVBgNVBAoTDkFudGhyb3BpYywgUEJDMSkwJwYDVQQDEyBBbnRocm9waWMgQ2xhdWRlIENvbnRlbnQgU2lnbmluZzBZMBMGByqGSM49AgEGCCqGSM49AwEHA0IABJh6CmvLUBgFFNU0vUKlOVtE6djd17L5SuwX0LemFisBM3dkd/3cyjxFA3Qo5S46fX0/ihY0VZ7mfb9KF703t5OjWDBWMA4GA1UdDwEB/wQEAwIHgDAVBgNVHSUEDjAMBgorBgEEAYPoXgIBMAwGA1UdEwEB/wQCMAAwHwYDVR0jBBgwFoAUzlHiBIFOZFsj+OPEz5o+nMHXXMIwCgYIKoZIzj0EAwMDZwAwZAIwMXMdFJ4BetLLVY7ORuE9noqbbAZOZn/aArXyTwFAZfKrPzxF2vPoJNf1+UCdg1XGAjBwX1zd9WGqYkqmL5SFqw1QySjr1zJfpJM9+1rdDwSPLMOPOjKuiXjoU/pUUeG9RwmhY3BhZFkNngAAAAAAAAAAAAAAAAAAAAAAAAAAAAAAAAAAAAAAAAAAAAAAAAAAAAAAAAAAAAAAAAAAAAAAAAAAAAAAAAAAAAAAAAAAAAAAAAAAAAAAAAAAAAAAAAAAAAAAAAAAAAAAAAAAAAAAAAAAAAAAAAAAAAAAAAAAAAAAAAAAAAAAAAAAAAAAAAAAAAAAAAAAAAAAAAAAAAAAAAAAAAAAAAAAAAAAAAAAAAAAAAAAAAAAAAAAAAAAAAAAAAAAAAAAAAAAAAAAAAAAAAAAAAAAAAAAAAAAAAAAAAAAAAAAAAAAAAAAAAAAAAAAAAAAAAAAAAAAAAAAAAAAAAAAAAAAAAAAAAAAAAAAAAAAAAAAAAAAAAAAAAAAAAAAAAAAAAAAAAAAAAAAAAAAAAAAAAAAAAAAAAAAAAAAAAAAAAAAAAAAAAAAAAAAAAAAAAAAAAAAAAAAAAAAAAAAAAAAAAAAAAAAAAAAAAAAAAAAAAAAAAAAAAAAAAAAAAAAAAAAAAAAAAAAAAAAAAAAAAAAAAAAAAAAAAAAAAAAAAAAAAAAAAAAAAAAAAAAAAAAAAAAAAAAAAAAAAAAAAAAAAAAAAAAAAAAAAAAAAAAAAAAAAAAAAAAAAAAAAAAAAAAAAAAAAAAAAAAAAAAAAAAAAAAAAAAAAAAAAAAAAAAAAAAAAAAAAAAAAAAAAAAAAAAAAAAAAAAAAAAAAAAAAAAAAAAAAAAAAAAAAAAAAAAAAAAAAAAAAAAAAAAAAAAAAAAAAAAAAAAAAAAAAAAAAAAAAAAAAAAAAAAAAAAAAAAAAAAAAAAAAAAAAAAAAAAAAAAAAAAAAAAAAAAAAAAAAAAAAAAAAAAAAAAAAAAAAAAAAAAAAAAAAAAAAAAAAAAAAAAAAAAAAAAAAAAAAAAAAAAAAAAAAAAAAAAAAAAAAAAAAAAAAAAAAAAAAAAAAAAAAAAAAAAAAAAAAAAAAAAAAAAAAAAAAAAAAAAAAAAAAAAAAAAAAAAAAAAAAAAAAAAAAAAAAAAAAAAAAAAAAAAAAAAAAAAAAAAAAAAAAAAAAAAAAAAAAAAAAAAAAAAAAAAAAAAAAAAAAAAAAAAAAAAAAAAAAAAAAAAAAAAAAAAAAAAAAAAAAAAAAAAAAAAAAAAAAAAAAAAAAAAAAAAAAAAAAAAAAAAAAAAAAAAAAAAAAAAAAAAAAAAAAAAAAAAAAAAAAAAAAAAAAAAAAAAAAAAAAAAAAAAAAAAAAAAAAAAAAAAAAAAAAAAAAAAAAAAAAAAAAAAAAAAAAAAAAAAAAAAAAAAAAAAAAAAAAAAAAAAAAAAAAAAAAAAAAAAAAAAAAAAAAAAAAAAAAAAAAAAAAAAAAAAAAAAAAAAAAAAAAAAAAAAAAAAAAAAAAAAAAAAAAAAAAAAAAAAAAAAAAAAAAAAAAAAAAAAAAAAAAAAAAAAAAAAAAAAAAAAAAAAAAAAAAAAAAAAAAAAAAAAAAAAAAAAAAAAAAAAAAAAAAAAAAAAAAAAAAAAAAAAAAAAAAAAAAAAAAAAAAAAAAAAAAAAAAAAAAAAAAAAAAAAAAAAAAAAAAAAAAAAAAAAAAAAAAAAAAAAAAAAAAAAAAAAAAAAAAAAAAAAAAAAAAAAAAAAAAAAAAAAAAAAAAAAAAAAAAAAAAAAAAAAAAAAAAAAAAAAAAAAAAAAAAAAAAAAAAAAAAAAAAAAAAAAAAAAAAAAAAAAAAAAAAAAAAAAAAAAAAAAAAAAAAAAAAAAAAAAAAAAAAAAAAAAAAAAAAAAAAAAAAAAAAAAAAAAAAAAAAAAAAAAAAAAAAAAAAAAAAAAAAAAAAAAAAAAAAAAAAAAAAAAAAAAAAAAAAAAAAAAAAAAAAAAAAAAAAAAAAAAAAAAAAAAAAAAAAAAAAAAAAAAAAAAAAAAAAAAAAAAAAAAAAAAAAAAAAAAAAAAAAAAAAAAAAAAAAAAAAAAAAAAAAAAAAAAAAAAAAAAAAAAAAAAAAAAAAAAAAAAAAAAAAAAAAAAAAAAAAAAAAAAAAAAAAAAAAAAAAAAAAAAAAAAAAAAAAAAAAAAAAAAAAAAAAAAAAAAAAAAAAAAAAAAAAAAAAAAAAAAAAAAAAAAAAAAAAAAAAAAAAAAAAAAAAAAAAAAAAAAAAAAAAAAAAAAAAAAAAAAAAAAAAAAAAAAAAAAAAAAAAAAAAAAAAAAAAAAAAAAAAAAAAAAAAAAAAAAAAAAAAAAAAAAAAAAAAAAAAAAAAAAAAAAAAAAAAAAAAAAAAAAAAAAAAAAAAAAAAAAAAAAAAAAAAAAAAAAAAAAAAAAAAAAAAAAAAAAAAAAAAAAAAAAAAAAAAAAAAAAAAAAAAAAAAAAAAAAAAAAAAAAAAAAAAAAAAAAAAAAAAAAAAAAAAAAAAAAAAAAAAAAAAAAAAAAAAAAAAAAAAAAAAAAAAAAAAAAAAAAAAAAAAAAAAAAAAAAAAAAAAAAAAAAAAAAAAAAAAAAAAAAAAAAAAAAAAAAAAAAAAAAAAAAAAAAAAAAAAAAAAAAAAAAAAAAAAAAAAAAAAAAAAAAAAAAAAAAAAAAAAAAAAAAAAAAAAAAAAAAAAAAAAAAAAAAAAAAAAAAAAAAAAAAAAAAAAAAAAAAAAAAAAAAAAAAAAAAAAAAAAAAAAAAAAAAAAAAAAAAAAAAAAAAAAAAAAAAAAAAAAAAAAAAAAAAAAAAAAAAAAAAAAAAAAAAAAAAAAAAAAAAAAAAAAAAAAAAAAAAAAAAAAAAAAAAAAAAAAAAAAAAAAAAAAAAAAAAAAAAAAAAAAAAAAAAAAAAAAAAAAAAAAAAAAAAAAAAAAAAAAAAAAAAAAAAAAAAAAAAAAAAAAAAAAAAAAAAAAAAAAAAAAAAAAAAAAAAAAAAAAAAAAAAAAAAAAAAAAAAAAAAAAAAAAAAAAAAAAAAAAAAAAAAAAAAAAAAAAAAAAAAAAAAAAAAAAAAAAAAAAAAAAAAAAAAAAAAAAAAAAAAAAAAAAAAAAAAAAAAAAAAAAAAAAAAAAAAAAAAAAAAAAAAAAAAAAAAAAAAAAAAAAAAAAAAAAAAAAAAAAAAAAAAAAAAAAAAAAAAAAAAAAAAAAAAAAAAAAAAAAAAAAAAAAAAAAAAAAAAAAAAAAAAAAAAAAAAAAAAAAAAAAAAAAAAAAAAAAAAAAAAAAAAAAAAAAAAAAAAAAAAAAAAAAAAAAAAAAAAAAAAAAAAAAAAAAAAAAAAAAAAAAAAAAAAAAAAAAAAAAAAAAAAAAAAAAAAAAAAAAAAAAAAAAAAAAAAAAAAAAAAAAAAAAAAAAAAAAAAAAAAAAAAAAAAAAAAAAAAAAAAAAAAAAAAAAAAAAAAAAAAAAAAAAAAAAAAAAAAAAAAAAAAAAAAAAAAAAAAAAAAAAAAAAAAAAAAAAAAAAAAAAAAAAAAAAAAAAAAAAAAAAAAAAAAAAAAAAAAAAAAAAAAAAAAAAAAAAAAAAAAAAAAAAAAAAAAAAAAAAAAAAAAAAAAAAAAAAAAAAAAAAAAAAAAAAAAAAAAAAAAAAAAAAAAAAAAAAAAAAAAAAAAAAAAAAAAAAAAAAAAAAAAAAAAAAAAAAAAAAAAAAAAAAAAAAAAAAAAAAAAAAAAAAAAAAAAAAAAAAAAAAAAAAAAAAAAAAAAAAAAAAAAAAAAAAAAAAAAAAAAAAAAAAAAAAAAAAAAAAAAAAAAAAAAAAAAAAAAAAAAAAAAAAAAAAAAAAAAAAAAAAAAAAAAAAAAAAAAAAAAAAAAAAAAAAAAAAAAAAAAAAAAAAAAAAAAAAAAAAAAAAAAAAAAAAAAAAAAAAAAAAAAAAAAAAAAAAAAAAAAAAAAAAAAAAAAAAAAAAAAAAAAAAAAAAAAAAAAAAAAAAAAAAAAAAAAAAAAAAAAAAAAAAAAAAAAAAAAAAAAAAAAAAAAAAAAAAAAAAAAAAAAAAAAAAAAAAAAAAAAAAAAAAAAAAAAAAAAAAAAAAAAAAAAAAAAAAAAAAAAAAAAAAAAAAAAAAAAAAAAAAAAAAAAAAAAAAAAAAAAAAAAAAAAAAAAAAAAAAAAAAAAAAAAAAAAAAAAAAAAAAAAAAAAAAAAAAAAAAAAAAAAAAAAAAAAAAAAAAAAAAAAAAAAAAAAAAAAAAAAAAAAAAAAAAAAAAAAAAAAAAAAAAAAAAAAAAAAAAAAAAAAAAAAAAAAAAAAAAAAAAAAAAAAAAAAAAAAAAAAAAAAAAAAAAAAAAAAAAAAAAAAAAAAAAAAAAAAAAAAAAAAAAAAAAAAAAAAAAAAAAAAAAAAAAAAAAAAAAAAAAAAAAAAAAAAAAAAAAAAAAAAAAAAAAAAAAAAAAAAAAAAAAAAAAAAAAAAAAAAAAAAAAAAAAAAAAAAAAAAAAAAAAAAAAAAAAAAAAAAAAAAAAAAAAAAAAAAAAAAAAAAAAAAAAAAAAAAAAAAAAAAAAAAAAAAAAAAAAAAAAAAAAAAAAAAAAAAAAAAAAAAAAAAAAAAAAAAAAAAAAAAAAAAAAAAAAAAAAAAAAAAAAAAAAAAAAAAAAAAAAAAAAAAAAAAAAAAAAAAAAAAAAAAAAAAAAAAAAAAAAAAAAAAAAAAAAAAAAAAAAAAAAAAAAAAAAAAAAAAAAAAAAAAAAAAAAAAAAAAAAAAAAAAAAAAAAAAAAAAAAAAAAAAAAAAAAAAAPZYQNLAaiiF9p6XbX6jP/6gPmfUoWI6NdPm9wNfzVtbZ63LzFuhiGm+PKb1pt0QUMFIYNFovDO+XT9Tvq06wsn7+mA=</c2pa:manifest></metadata>
  <rect width="512" height="512" rx="112" fill="#111111"/>
  <g fill="#ffffff">
    <path d="M205.0 327.7 L205.7 324.6 L206.5 321.9 L207.3 319.3 L208.3 316.8 L209.3 314.4 L210.3 311.9 L211.3 309.3 L212.3 306.6 L212.7 303.7 L212.8 300.7 L212.7 297.7 L212.5 294.7 L212.2 291.7 L211.8 288.9 L211.3 286.1 L210.8 283.4 L210.3 280.7 L209.8 278.0 L209.4 275.3 L209.0 272.6 L208.7 269.9 L208.5 267.1 L208.4 264.3 L208.4 261.4 L208.5 258.4 L208.6 255.4 L208.8 252.3 L209.1 249.2 L209.3 246.0 L209.6 242.8 L209.8 239.5 L209.9 236.2 L209.8 232.8 L209.1 229.5 L208.3 226.3 L207.3 223.1 L206.3 220.2 L205.1 217.3 L204.0 214.6 L202.8 212.1 L201.7 209.5 L183.3 213.5 L183.3 216.3 L183.3 219.1 L183.3 221.7 L183.1 224.1 L182.9 226.5 L182.6 228.7 L182.2 230.9 L181.7 233.1 L181.5 235.4 L181.4 237.9 L181.2 240.6 L180.9 243.5 L180.6 246.6 L180.2 249.8 L179.9 253.3 L179.6 256.9 L179.4 260.6 L179.3 264.4 L179.3 268.1 L179.4 271.9 L179.7 275.6 L180.1 279.1 L180.5 282.5 L181.0 285.7 L181.5 288.6 L182.0 291.3 L182.4 293.7 L182.8 295.9 L183.0 297.8 L183.2 299.5 L183.3 301.1 L183.4 302.7 L183.5 304.4 L184.0 306.5 L184.5 308.8 L184.9 311.3 L185.2 314.2 L185.6 317.3 L186.0 320.6 L186.5 324.1 L187.1 327.6Z"/>
    <circle cx="196.1" cy="327.6" r="8.9"/>
    <circle cx="192.5" cy="211.5" r="9.4"/>
    <path d="M209.5 257.8 L210.3 255.5 L211.1 253.3 L212.0 251.3 L212.9 249.3 L213.8 247.3 L214.8 245.5 L215.8 243.7 L216.8 242.0 L217.4 240.3 L217.8 238.6 L218.3 236.9 L218.9 235.4 L219.4 233.9 L220.1 232.5 L220.8 231.1 L221.6 229.8 L222.4 228.6 L223.4 227.4 L224.5 226.2 L225.7 225.1 L227.0 224.1 L228.5 223.0 L230.2 222.1 L232.1 221.1 L234.2 220.3 L236.4 219.5 L238.8 218.8 L241.3 218.2 L244.0 217.7 L246.8 217.3 L249.6 217.0 L252.5 216.9 L255.5 216.8 L258.4 216.9 L261.4 217.2 L264.3 217.5 L267.1 218.0 L269.8 218.7 L272.4 219.5 L274.8 220.4 L277.1 221.4 L279.1 222.5 L281.0 223.7 L282.6 225.0 L283.9 226.3 L285.1 227.6 L286.1 229.0 L286.9 230.4 L287.5 231.8 L288.0 233.2 L288.4 234.7 L288.7 236.4 L288.9 238.1 L289.1 240.0 L289.1 242.0 L289.0 244.1 L288.8 246.4 L288.5 248.9 L288.2 251.8 L287.8 255.0 L287.5 258.2 L287.3 261.5 L287.1 264.9 L287.1 268.3 L287.1 271.8 L287.2 275.2 L287.4 278.7 L287.7 282.2 L288.1 285.6 L288.6 289.0 L289.2 292.3 L289.9 295.6 L290.6 298.9 L291.4 302.4 L292.4 306.1 L293.8 309.9 L295.3 313.6 L297.0 317.2 L298.9 320.7 L301.1 324.1 L303.4 327.4 L306.0 330.5 L308.7 333.5 L311.7 336.3 L314.7 338.9 L318.0 341.3 L321.3 343.4 L324.7 345.3 L328.2 346.9 L331.7 348.3 L335.3 349.4 L338.8 350.2 L342.4 350.9 L345.8 351.2 L349.3 351.4 L352.7 351.4 L356.0 351.3 L359.3 350.9 L362.5 350.5 L365.8 349.9 L369.0 349.2 L372.2 348.3 L375.4 347.3 L378.6 346.2 L381.8 345.0 L385.0 343.7 L388.1 342.2 L391.2 340.7 L394.3 339.0 L397.4 337.3 L400.4 335.4 L403.4 333.5 L406.3 331.4 L409.2 329.3 L412.0 327.0 L414.8 324.6 L417.4 322.2 L420.0 319.6 L422.5 316.9 L424.8 314.1 L427.0 311.3 L429.1 308.2 L431.0 305.1 L432.7 302.0 L434.3 298.7 L435.6 295.3 L436.8 291.9 L437.9 288.5 L438.7 285.0 L439.4 281.6 L439.9 278.1 L440.2 274.6 L440.4 271.1 L440.5 267.6 L440.5 264.2 L440.4 260.7 L440.2 257.3 L439.9 253.9 L439.6 250.5 L439.1 247.1 L438.7 243.8 L438.2 240.4 L437.7 237.1 L437.2 233.7 L436.6 230.4 L436.0 227.0 L435.3 223.6 L434.7 220.2 L434.0 216.8 L433.2 213.3 L432.4 209.9 L431.6 206.4 L430.6 203.0 L429.7 199.6 L428.7 196.2 L427.6 192.8 L426.4 189.4 L425.2 186.1 L423.9 182.9 L422.6 179.6 L421.2 176.5 L419.7 173.4 L418.2 170.3 L416.6 167.4 L415.0 164.5 L413.4 161.6 L411.7 158.9 L410.0 156.2 L408.3 153.6 L406.6 151.1 L404.9 148.7 L403.1 146.3 L401.3 144.0 L399.5 141.8 L397.7 139.6 L395.9 137.5 L394.0 135.4 L392.1 133.4 L390.1 131.5 L388.1 129.6 L386.1 127.7 L384.0 125.9 L381.8 124.1 L379.5 122.4 L377.1 120.7 L374.7 119.1 L372.2 117.5 L369.6 116.0 L366.9 114.5 L364.1 113.0 L361.2 111.6 L358.2 110.3 L355.2 108.9 L352.1 107.6 L348.8 106.4 L345.5 105.1 L342.2 103.9 L338.7 102.6 L335.3 101.4 L331.7 100.2 L328.2 99.0 L324.6 97.8 L321.0 96.7 L317.4 95.5 L313.8 94.3 L310.3 93.1 L306.8 92.0 L303.3 90.8 L300.0 89.7 L296.7 88.6 L293.4 87.4 L290.3 86.3 L287.3 85.3 L284.3 84.2 L281.4 83.2 L278.6 82.2 L275.8 81.2 L273.1 80.3 L270.4 79.4 L267.7 78.5 L265.1 77.7 L262.4 76.9 L259.7 76.2 L256.9 75.6 L254.1 75.0 L251.2 74.5 L248.3 74.2 L245.3 74.0 L242.3 73.9 L239.3 73.9 L236.2 74.0 L233.0 74.3 L229.8 74.7 L226.6 75.2 L223.3 75.9 L220.0 76.6 L216.7 77.5 L213.3 78.4 L209.9 79.5 L206.4 80.7 L202.9 82.0 L199.4 83.4 L195.9 84.8 L192.3 86.4 L188.8 88.0 L185.3 89.7 L181.8 91.5 L178.4 93.4 L175.0 95.4 L171.7 97.4 L168.4 99.4 L165.2 101.5 L162.1 103.7 L159.0 105.9 L156.1 108.1 L153.2 110.4 L150.4 112.7 L147.7 115.0 L145.1 117.3 L142.6 119.6 L140.1 121.9 L137.7 124.1 L135.4 126.4 L133.1 128.7 L130.9 130.9 L128.7 133.1 L126.5 135.3 L124.4 137.4 L122.2 139.6 L120.1 141.7 L118.0 143.9 L115.9 146.0 L113.8 148.1 L111.6 150.3 L109.5 152.5 L107.4 154.7 L105.2 156.9 L103.1 159.1 L101.0 161.4 L98.9 163.8 L96.8 166.1 L94.7 168.6 L92.7 171.1 L90.8 173.6 L88.9 176.3 L87.1 179.0 L85.4 181.7 L83.8 184.6 L82.3 187.5 L80.9 190.4 L79.7 193.4 L78.6 196.5 L77.7 199.6 L76.9 202.7 L76.2 205.8 L75.7 208.9 L75.2 212.0 L74.9 215.1 L74.7 218.1 L74.6 221.2 L74.5 224.2 L74.5 227.3 L74.6 230.3 L74.7 233.3 L74.8 236.3 L74.9 239.3 L75.1 242.4 L75.3 245.4 L75.5 248.5 L75.7 251.6 L75.9 254.7 L76.1 257.8 L76.3 261.0 L76.5 264.1 L76.8 267.4 L77.0 270.6 L77.3 273.9 L77.6 277.1 L78.0 280.4 L78.4 283.7 L78.8 287.1 L79.3 290.4 L79.9 293.7 L80.5 297.0 L81.1 300.3 L81.8 303.7 L82.6 306.9 L83.5 310.2 L84.3 313.4 L85.3 316.6 L86.3 319.8 L87.3 322.9 L88.4 326.0 L89.5 329.0 L90.6 332.0 L91.8 335.0 L93.0 337.9 L94.2 340.7 L95.4 343.5 L96.7 346.3 L98.0 349.0 L99.3 351.8 L100.6 354.4 L102.1 357.1 L103.5 359.7 L105.0 362.4 L106.6 365.0 L108.3 367.6 L110.0 370.2 L111.9 372.8 L113.8 375.3 L115.9 377.8 L118.1 380.3 L120.5 382.8 L122.9 385.2 L125.5 387.5 L128.2 389.8 L131.0 392.0 L133.9 394.2 L137.0 396.2 L140.1 398.2 L143.3 400.1 L146.6 401.9 L150.0 403.7 L153.5 405.3 L157.0 406.9 L160.5 408.5 L164.1 410.0 L167.6 411.4 L171.2 412.7 L174.8 414.0 L178.3 415.3 L181.8 416.5 L185.3 417.6 L188.7 418.7 L192.1 419.8 L195.4 420.8 L198.6 421.8 L201.7 422.7 L204.8 423.6 L207.8 424.4 L210.7 425.2 L213.5 426.0 L216.3 426.7 L219.1 427.4 L221.8 428.1 L224.5 428.7 L227.2 429.2 L229.9 429.7 L232.6 430.2 L235.3 430.6 L238.1 430.9 L240.8 431.2 L243.6 431.4 L246.5 431.6 L249.4 431.7 L252.4 431.7 L255.4 431.7 L258.5 431.6 L261.7 431.5 L265.0 431.3 L268.3 431.0 L271.7 430.7 L275.1 430.4 L278.7 430.0 L282.3 429.5 L285.9 429.0 L289.6 428.4 L293.3 427.8 L297.0 427.1 L300.7 426.4 L304.4 425.6 L308.1 424.8 L311.7 424.0 L315.3 423.1 L318.9 422.1 L322.3 421.1 L325.7 420.0 L329.1 418.9 L332.3 417.8 L335.4 416.6 L338.5 415.3 L341.5 414.0 L344.3 412.7 L347.1 411.3 L349.8 409.8 L352.4 408.3 L354.8 406.6 L356.9 404.4 L358.9 402.3 L360.9 400.1 L362.8 398.0 L364.6 395.8 L366.3 393.6 L368.1 391.4 L369.7 389.2 L359.0 375.0 L356.6 375.9 L354.3 376.6 L352.0 377.3 L349.6 377.8 L347.3 378.3 L345.0 378.7 L342.7 379.1 L340.4 379.4 L338.2 380.0 L336.1 380.8 L333.9 381.6 L331.6 382.4 L329.2 383.2 L326.7 384.0 L324.1 384.8 L321.5 385.7 L318.7 386.5 L315.7 387.3 L312.7 388.2 L309.6 389.0 L306.5 389.9 L303.2 390.8 L299.9 391.7 L296.5 392.6 L293.1 393.5 L289.7 394.4 L286.3 395.2 L282.9 396.1 L279.6 397.0 L276.2 397.8 L273.0 398.6 L269.8 399.4 L266.7 400.1 L263.7 400.9 L260.8 401.5 L258.0 402.2 L255.3 402.7 L252.7 403.2 L250.2 403.7 L247.8 404.1 L245.5 404.4 L243.3 404.7 L241.2 404.9 L239.1 405.1 L237.0 405.1 L235.0 405.1 L232.9 405.1 L230.9 404.9 L228.7 404.7 L226.5 404.4 L224.3 404.0 L222.0 403.5 L219.5 402.9 L217.0 402.2 L214.5 401.5 L211.8 400.6 L209.0 399.7 L206.2 398.7 L203.3 397.6 L200.3 396.5 L197.3 395.2 L194.2 393.9 L191.2 392.6 L188.1 391.2 L185.0 389.7 L181.9 388.1 L178.9 386.6 L175.9 384.9 L173.0 383.3 L170.2 381.6 L167.4 379.9 L164.8 378.1 L162.3 376.4 L159.8 374.6 L157.6 372.8 L155.4 371.0 L153.4 369.3 L151.4 367.5 L149.6 365.7 L147.9 363.9 L146.3 362.1 L144.7 360.3 L143.2 358.5 L141.7 356.7 L140.3 354.8 L138.9 352.9 L137.6 351.0 L136.2 349.0 L134.8 346.9 L133.5 344.8 L132.1 342.7 L130.7 340.5 L129.3 338.3 L128.0 336.0 L126.6 333.7 L125.2 331.4 L123.8 329.0 L122.4 326.6 L121.0 324.2 L119.6 321.8 L118.3 319.3 L116.9 316.9 L115.6 314.4 L114.4 311.9 L113.2 309.4 L112.0 306.8 L110.9 304.3 L109.9 301.7 L108.9 299.1 L107.9 296.4 L107.1 293.8 L106.3 291.1 L105.5 288.3 L104.9 285.6 L104.3 282.8 L103.7 279.9 L103.3 277.1 L102.9 274.2 L102.5 271.3 L102.2 268.3 L101.9 265.4 L101.7 262.4 L101.6 259.5 L101.5 256.5 L101.4 253.5 L101.3 250.6 L101.3 247.7 L101.3 244.8 L101.4 241.9 L101.5 239.1 L101.6 236.3 L101.7 233.6 L101.9 230.9 L102.1 228.4 L102.4 225.9 L102.7 223.5 L103.1 221.1 L103.5 218.9 L104.0 216.8 L104.5 214.7 L105.1 212.7 L105.7 210.8 L106.4 209.0 L107.2 207.1 L108.0 205.4 L108.9 203.6 L109.9 201.8 L111.0 200.1 L112.1 198.3 L113.4 196.4 L114.7 194.6 L116.1 192.7 L117.7 190.8 L119.3 188.8 L121.0 186.8 L122.7 184.7 L124.6 182.6 L126.4 180.5 L128.4 178.3 L130.4 176.1 L132.4 173.9 L134.4 171.6 L136.4 169.4 L138.4 167.1 L140.4 164.8 L142.5 162.5 L144.5 160.2 L146.5 157.8 L148.4 155.5 L150.4 153.3 L152.4 151.0 L154.4 148.7 L156.3 146.5 L158.3 144.3 L160.3 142.1 L162.4 140.0 L164.5 137.9 L166.6 135.8 L168.8 133.7 L171.0 131.7 L173.3 129.8 L175.7 127.8 L178.2 125.9 L180.8 124.0 L183.4 122.2 L186.1 120.5 L188.9 118.7 L191.7 117.1 L194.6 115.5 L197.5 114.0 L200.5 112.5 L203.5 111.2 L206.4 109.9 L209.4 108.7 L212.3 107.6 L215.2 106.7 L218.1 105.8 L220.9 105.0 L223.5 104.3 L226.1 103.7 L228.6 103.3 L231.0 102.9 L233.3 102.7 L235.4 102.5 L237.5 102.4 L239.4 102.4 L241.3 102.5 L243.1 102.7 L244.9 102.9 L246.6 103.2 L248.4 103.6 L250.2 104.1 L252.1 104.6 L254.1 105.2 L256.1 105.9 L258.3 106.7 L260.6 107.5 L263.0 108.4 L265.6 109.3 L268.3 110.4 L271.1 111.4 L274.0 112.5 L277.0 113.6 L280.2 114.8 L283.4 116.0 L286.8 117.1 L290.2 118.3 L293.7 119.5 L297.2 120.7 L300.8 121.9 L304.4 123.1 L308.1 124.2 L311.7 125.4 L315.2 126.5 L318.8 127.7 L322.3 128.8 L325.7 129.9 L329.0 131.0 L332.2 132.1 L335.4 133.1 L338.4 134.2 L341.2 135.3 L344.0 136.3 L346.6 137.4 L349.0 138.4 L351.3 139.4 L353.5 140.5 L355.6 141.5 L357.6 142.6 L359.4 143.6 L361.2 144.7 L362.9 145.8 L364.5 146.9 L366.1 148.1 L367.7 149.3 L369.2 150.6 L370.7 151.9 L372.2 153.3 L373.7 154.8 L375.2 156.3 L376.7 158.0 L378.2 159.6 L379.7 161.4 L381.2 163.2 L382.6 165.1 L384.1 167.1 L385.5 169.2 L386.9 171.3 L388.3 173.4 L389.7 175.7 L391.0 178.0 L392.3 180.3 L393.5 182.7 L394.7 185.2 L395.8 187.8 L396.9 190.4 L397.9 193.0 L398.9 195.7 L399.8 198.5 L400.7 201.3 L401.5 204.1 L402.2 207.1 L402.9 210.0 L403.6 213.0 L404.2 216.0 L404.8 219.1 L405.3 222.2 L405.8 225.4 L406.3 228.5 L406.7 231.7 L407.1 234.8 L407.5 238.0 L407.9 241.2 L408.2 244.3 L408.5 247.4 L408.8 250.5 L409.1 253.4 L409.3 256.3 L409.5 259.1 L409.6 261.9 L409.6 264.6 L409.6 267.1 L409.5 269.6 L409.3 272.0 L409.1 274.4 L408.8 276.6 L408.4 278.7 L408.0 280.8 L407.4 282.8 L406.8 284.8 L406.1 286.7 L405.3 288.7 L404.4 290.5 L403.4 292.4 L402.3 294.3 L401.1 296.2 L399.7 298.1 L398.2 300.0 L396.6 301.8 L394.9 303.7 L393.1 305.5 L391.1 307.3 L389.1 309.0 L387.0 310.7 L384.9 312.4 L382.6 313.9 L380.4 315.4 L378.1 316.8 L375.9 318.1 L373.6 319.3 L371.3 320.4 L369.1 321.4 L366.8 322.2 L364.7 323.0 L362.5 323.6 L360.4 324.1 L358.3 324.5 L356.3 324.8 L354.2 324.9 L352.3 325.0 L350.4 324.9 L348.5 324.7 L346.7 324.4 L344.9 324.0 L343.1 323.4 L341.4 322.7 L339.7 321.9 L338.0 320.9 L336.4 319.8 L334.7 318.6 L333.2 317.2 L331.7 315.6 L330.3 313.9 L328.9 312.2 L327.7 310.3 L326.6 308.3 L325.5 306.2 L324.6 304.1 L323.8 301.9 L323.1 299.8 L322.6 297.6 L322.1 295.3 L321.7 292.8 L321.2 290.0 L320.8 287.2 L320.5 284.4 L320.2 281.7 L319.9 279.0 L319.7 276.3 L319.5 273.6 L319.4 271.0 L319.4 268.3 L319.3 265.5 L319.4 262.8 L319.4 260.0 L319.5 257.2 L319.6 254.3 L319.8 251.1 L319.8 247.6 L319.8 244.0 L319.5 240.3 L319.0 236.5 L318.3 232.8 L317.3 229.0 L316.0 225.3 L314.4 221.6 L312.5 218.1 L310.2 214.7 L307.6 211.5 L304.8 208.6 L301.7 205.9 L298.4 203.4 L294.9 201.3 L291.2 199.4 L287.5 197.7 L283.6 196.3 L279.7 195.1 L275.7 194.1 L271.7 193.3 L267.7 192.7 L263.7 192.3 L259.7 192.0 L255.8 191.9 L251.9 191.9 L248.1 192.0 L244.3 192.3 L240.6 192.6 L237.0 193.1 L233.4 193.7 L229.9 194.4 L226.4 195.2 L223.0 196.2 L219.7 197.3 L216.4 198.6 L213.2 200.1 L210.1 201.8 L207.2 203.7 L204.3 205.8 L201.6 208.0 L199.1 210.4 L196.8 213.0 L194.7 215.7 L192.7 218.4 L191.0 221.3 L189.4 224.2 L188.0 227.2 L186.8 230.2 L185.9 233.2 L185.7 236.4 L185.6 239.5 L185.6 242.6 L185.8 245.7 L186.1 248.7 L186.5 251.6 L187.1 254.6 L187.7 257.3Z"/>
    <circle cx="198.6" cy="257.5" r="10.9"/>
    <circle cx="364.3" cy="382.1" r="8.9"/>
  </g>
</svg>
